<?xml version="1.0" encoding="utf-8"?>
<svg version="1.1" id="Layer_1" xmlns="http://www.w3.org/2000/svg" xmlns:xlink="http://www.w3.org/1999/xlink" x="0px" y="0px"
	 viewBox="0 0 532.8 476.6" style="enable-background:new 0 0 532.8 476.6;" xml:space="preserve">
<style type="text/css">
	.st0{fill:#FF0000;}
	.st1{fill:#13007C;}
	.st2{fill:#008837;}
</style>
<path class="st0" d="M289.7,80.8c5.9-2.6,11.8-5.1,17.7-7.4L266.4,0l-88.4,158.2C207.1,127.9,245.1,100.8,289.7,80.8z"/>
<path class="st1" d="M431.5,395.8c-130.5,58.7-268,35.8-307.2-51.1c-10.7-23.8-12.9-49.9-7.9-76.4L0,476.6h532.8l-57.9-103.6
	C461.2,381.2,446.8,388.9,431.5,395.8z"/>
<path class="st2" d="M465.7,356.5l-28,15.7c-0.1,0.1-0.2,0.1-0.3,0.1v0c-4.4,2.2-9,4.4-13.6,6.5c-116.5,52.4-239.2,32-274.2-45.6
	c-34.9-77.6,31.1-183.1,147.6-235.5c6.4-2.9,12.8-5.5,19.2-8l16.5,29.5c-11.3,3.4-22.7,7.6-34,12.7
	c-92.3,41.6-144.7,125.2-117,186.7c27.7,61.6,125,77.8,217.3,36.2c7.8-3.5,15.3-7.3,22.5-11.4L357.3,224l27.4-12.4l64,114.5
	L465.7,356.5z"/>
</svg>
