<svg version="1.1" xmlns="http://www.w3.org/2000/svg" xmlns:xlink="http://www.w3.org/1999/xlink" x="0px" y="0px" enable-background="new 0 0 500 404.4" xml:space="preserve">
	<symbol id="facebook" viewBox="0 0 243.6 468.9">
    <path d="M0,254.9c0-27.8,0-55.6,0-83.4c0.3-0.4,0.7-0.5,1.2-0.5c0.6,0,1.1,0,1.7,0c22.1,0,44.2,0,66.3,0c2.3,0,2.3,0,2.3-2.3
      c0-19.3-0.1-38.7,0-58c0-10,0.8-20,2.8-29.8c1.8-8.9,4.5-17.6,8.3-25.9c3.8-8.2,8.7-15.8,14.7-22.6c7.2-8.1,15.5-14.7,25-19.8
      c11.3-6,23.3-9.7,35.9-11.6c4-0.6,8-0.8,12-0.9c0.9,0,1.9-0.1,2.8-0.1c0.5,0,1,0,1.4,0c0.6,0,1.2,0,1.9,0c2.1,0,4.3,0,6.4,0
      c1.2,0,2.3,0,3.5,0c1.6,0,3.2,0,4.8,0c5.5,0,10.9,0.1,16.4,0.2c5.9,0.1,11.9,0.4,17.8,0.9c5.4,0.4,10.8,0.8,16.2,1.4
      c0.7,0.1,1.7-0.2,2.1,0.9c0,24.6,0,49.2,0,73.8c0,0.2,0,0.4,0,0.6c-0.2,0.5-0.6,0.5-1,0.5c-0.6,0-1.2,0-1.8,0c-14.5,0-29-0.1-43.5,0
      c-6.9,0.1-13.7,1-20.2,3.5c-8.4,3.3-13.7,9.5-16.2,18.1c-1.1,3.8-1.6,7.6-1.9,11.5c-0.2,2.2-0.2,4.5-0.2,6.7c0,16.8,0,33.7,0,50.5
      c0,2.3,0.1,2.4,2.4,2.4c25.4,0,50.9,0,76.3,0c0.7,0,1.4,0,2.1,0c1.3,0.1,1.6,0.4,1.5,1.7c-0.1,1-0.2,2.1-0.4,3.1
      c-1.3,10.2-2.6,20.4-4,30.6c-1.5,11.3-2.9,22.6-4.4,33.9c-0.6,4.5-1.1,9.1-1.8,13.6c-0.2,1.2-0.4,1.4-1.6,1.5c-0.7,0-1.4,0-2.1,0
      c-21.8,0-43.7,0-65.5,0c-2.5,0-2.6,0.1-2.6,2.6c0,69.3,0,138.6,0,207.9c0,0.9,0.3,1.9-0.3,2.8c-0.4,0.2-0.8,0.2-1.2,0.2
      c-28,0-56.1,0-84.1,0c-1.1,0-1.2-0.1-1.2-1.2c0-0.5,0-1,0-1.5c0-68.8,0-137.6,0-206.4c0-1.3-0.1-2.6-0.7-3.8
      c-0.3-0.3-0.8-0.4-1.2-0.4c-0.5,0-1,0-1.5,0c-22,0-44.1,0-66.1,0C1.6,255.4,0.7,255.7,0,254.9z"/>		
    </symbol>

	<symbol id="insta" viewBox="0 0 428.1 428.1">
    <path d="M214.4,262.8h-0.2c-26.8,0-48.5-21.7-48.5-48.5v-1.8c0-26.8,21.7-48.5,48.5-48.5h0.2c26.8,0,48.5,21.7,48.5,48.5v1.8
      C262.9,241.1,241.1,262.8,214.4,262.8z"/>
    <path d="M335.3,0H92.8C41.8,0,0,41.8,0,92.8v242.6c0,51,41.8,92.8,92.8,92.8h242.6c51,0,92.8-41.8,92.8-92.8V92.8
      C428.1,41.8,386.4,0,335.3,0z M375,283.7c0,53.5-43.8,97.3-97.3,97.3H150.1c-53.5,0-97.3-43.8-97.3-97.3V146.2
      c0-53.5,43.8-97.3,97.3-97.3h127.6c53.5,0,97.3,43.8,97.3,97.3V283.7z"/>
    <path d="M278.1,83.6H149.7c-34.3,0-62.3,28-62.3,62.3v135.5c0,34.3,28,62.3,62.3,62.3h128.3c34.3,0,62.3-28,62.3-62.3V145.8
      C340.4,111.6,312.3,83.6,278.1,83.6z M307.7,216.7c0,49.4-40.4,89.8-89.8,89.8h-4.5c-49.4,0-89.8-40.4-89.8-89.8v-4.5
      c0-49.4,40.4-89.8,89.8-89.8h4.5c49.4,0,89.8,40.4,89.8,89.8V216.7z M320.2,126.8c0,10.6-8.6,19.2-19.2,19.2h0
      c-10.6,0-19.2-8.6-19.2-19.2v-1.1c0-10.6,8.6-19.2,19.2-19.2h0c10.6,0,19.2,8.6,19.2,19.2V126.8z"/>
    </symbol>

	<symbol id="twitter" viewBox="0 0 468.8 381.6">
    <path d="M61,145.5c-18.3-12.9-31.2-29.9-37.6-51.4c-7.7-25.7-5.1-50.5,7.5-74.3c1.3-2.4,1.3-2.4,3-0.3c14,16.8,29.7,31.8,47.3,44.8
      c21.3,15.9,44.4,28.4,69.3,37.5c18.3,6.7,37.1,11.4,56.4,14c7.3,1,14.7,1.7,22,2.2c1.5,0.1,1.8-0.1,1.5-1.8
      c-6.6-35.9,3-66.6,29.7-91.6c15.1-14.1,33.2-22.1,53.8-24.2c31.1-3.2,57.8,6.6,79.9,28.6c0.8,0.8,1.5,1.1,2.8,0.9
      c20.5-4.3,39.9-11.7,58-22.2c0.4-0.2,0.8-0.4,1.5-0.8c-7.7,22.6-21.4,40.1-41.4,52.6c0,0.5,0,0.6,0.7,0.4c16.3-2,32-6.1,47.2-12.2
      c2-0.8,3.9-1.6,6.2-2.6c-2.9,4.5-5.9,8.5-9,12.4c-10.9,13.8-23.4,25.9-37.5,36.3c-1,0.8-1.4,1.5-1.4,2.8c0.4,9.8,0.3,19.5-0.4,29.3
      c-1.3,17.9-4.3,35.5-9.1,52.7c-11.1,40.2-29.6,76.5-56.5,108.4c-36.1,42.9-81.3,71.6-135.7,85.6c-18,4.7-36.4,7.3-55,8.3
      c-16.1,0.9-32.1,0.6-48.2-1.2c-41.6-4.8-80.1-18.4-115.5-40.8c-0.1-0.1-0.2-0.2-0.7-0.6c52.6,5.2,99.8-7.9,142.1-39.9
      c-3.5-0.3-6.5-0.6-9.5-0.9c-17.3-2-32.9-8.3-46.7-18.8c-15.5-11.8-26.5-26.9-33-45.3c-0.7-2.1-0.7-2.1,1.5-1.7
      c13.2,2.2,26.3,1.7,39.3-1.5c0.5-0.1,0.9-0.3,1.8-0.5c-3.8-1-7.3-1.8-10.7-2.9c-23.6-8-41.7-22.9-54-44.6
      c-7.8-13.8-11.8-28.7-12.2-44.6c-0.1-3.6-0.1-3.6,3.1-1.9c11.8,5.9,24.3,9.5,37.5,10.2C60.6,146.2,60.6,146.2,61,145.5z"/>
    </symbol>

	<symbol id="youtube" viewBox="0 0 468.8 381.6">
    <path d="M474.2,83.2c0-21.4-8.7-40.8-22.7-54.8c-14-14-33.4-22.7-54.8-22.7c0,0-62.7-5.8-156.8-5.8C151.4,0,83.2,5.8,83.2,5.8
      c-21.4,0-40.8,8.7-54.8,22.7c-14,14-22.7,33.4-22.7,54.8c0,0-5.8,38.9-5.8,85.4c0,44.3,5.8,85.4,5.8,85.4c0,21.4,8.7,40.8,22.7,54.8
      c14,14,33.4,22.7,54.8,22.7c0,0,73.5,5.7,156.8,5.8c100.5,0.1,156.8-5.8,156.8-5.8c21.4,0,40.8-8.7,54.8-22.7
      c14-14,22.7-33.4,22.7-54.8c0,0,5.8-42.2,5.8-85.4C480,116.8,474.2,83.2,474.2,83.2z M185.9,235.3V102l127.6,66.7L185.9,235.3z"/>
      </symbol>
</svg>